<svg version="1.1" xmlns="http://www.w3.org/2000/svg" xmlns:xlink="http://www.w3.org/1999/xlink" width="151.75" height="151.75" viewBox="0,0,151.75,151.75"><defs><linearGradient x1="164.125" y1="180" x2="315.875" y2="180" gradientUnits="userSpaceOnUse" id="color-1"><stop offset="0" stop-color="#0b0010"/><stop offset="1" stop-color="#290038"/></linearGradient><linearGradient x1="180.63715" y1="173.34429" x2="423.3291" y2="173.34429" gradientUnits="userSpaceOnUse" id="color-2"><stop offset="0" stop-color="#71009a"/><stop offset="1" stop-color="#630098"/></linearGradient><linearGradient x1="244.68895" y1="186.4057" x2="545.46348" y2="186.4057" gradientUnits="userSpaceOnUse" id="color-3"><stop offset="0" stop-color="#71009a"/><stop offset="1" stop-color="#630098"/></linearGradient><linearGradient x1="185.63715" y1="173.34429" x2="428.3291" y2="173.34429" gradientUnits="userSpaceOnUse" id="color-4"><stop offset="0" stop-color="#ba00ff"/><stop offset="1" stop-color="#a500ff"/></linearGradient><linearGradient x1="249.68895" y1="186.4057" x2="550.46348" y2="186.4057" gradientUnits="userSpaceOnUse" id="color-5"><stop offset="0" stop-color="#ba00ff"/><stop offset="1" stop-color="#a500ff"/></linearGradient></defs><g transform="translate(-164.125,-104.125)"><g data-paper-data="{&quot;isPaintingLayer&quot;:true}" fill-rule="nonzero" stroke="none" stroke-linecap="butt" stroke-linejoin="miter" stroke-miterlimit="10" stroke-dasharray="" stroke-dashoffset="0" style="mix-blend-mode: normal"><path d="M164.125,180c0,-41.90461 33.97039,-75.875 75.875,-75.875c41.90461,0 75.875,33.97039 75.875,75.875c0,41.90461 -33.97039,75.875 -75.875,75.875c-41.90461,0 -75.875,-33.97039 -75.875,-75.875z" fill="url(#color-1)" stroke-width="0.5"/><g stroke-width="1"><path d="M180.63715,210.93124c0,0 6.63154,-5.46555 9.36852,-8.72948c1.02209,-1.21887 1.13148,-6.14596 1.13148,-6.14596v-47.29845h45.81815v10.01252h-35.74344v9.79485h28.76267v10.0747h-28.76266v17.66638c0,0 -1.06766,7.64673 -7.53511,12.07843c-4.68348,3.20926 -13.0396,2.54701 -13.0396,2.54701z" fill="url(#color-2)"/><path d="M254.62373,211.24265c-1.83459,0 -3.49816,-0.44569 -4.99071,-1.33707c-1.49255,-0.90175 -2.68969,-2.09889 -3.59144,-3.59144c-0.90175,-1.49255 -1.35263,-3.1613 -1.35263,-5.00626v-29.80434c0,-1.83459 0.45087,-3.49816 1.35263,-4.99071c0.90175,-1.50292 2.09889,-2.70006 3.59144,-3.59144c1.49255,-0.90175 3.15612,-1.35262 4.99071,-1.35262h29.74215c1.83459,0 3.49816,0.45087 4.99071,1.35262c1.50292,0.89139 2.71043,2.08853 3.62254,3.59144c0.92248,1.49255 1.38372,3.15612 1.38372,4.99071v4.27553h-10.07471v-3.79357c0,-0.13475 -0.03628,-0.23321 -0.10883,-0.2954c-0.06219,-0.07255 -0.16066,-0.10883 -0.2954,-0.10883h-28.8404c-0.13474,0 -0.23839,0.03627 -0.31095,0.10883c-0.07255,0.06219 -0.10883,0.16065 -0.10883,0.2954v28.8404c0,0.13475 0.03628,0.23839 0.10883,0.31095c0.07255,0.07255 0.1762,0.10883 0.31095,0.10883h28.8404c0.13474,0 0.23321,-0.03627 0.2954,-0.10883c0.07255,-0.07255 0.10883,-0.1762 0.10883,-0.31095v-8.14683h-10.9609v-9.99696h21.03561v18.62577c0,1.84495 -0.46124,3.51371 -1.38372,5.00626c-0.91211,1.49255 -2.11963,2.6897 -3.62254,3.59144c-1.49255,0.89139 -3.15612,1.33707 -4.99071,1.33707z" fill="url(#color-3)"/><path d="M185.63715,210.93124c0,0 6.63154,-5.46555 9.36852,-8.72948c1.0221,-1.21887 1.13147,-6.14596 1.13147,-6.14596v-47.29845h45.81815v10.01252h-35.74344v9.79485h28.76267v10.0747h-28.76266v17.66638c0,0 0.15456,5.75784 -6.31289,10.18954c-4.68347,3.20926 -14.26182,4.4359 -14.26182,4.4359z" fill="url(#color-4)"/><path d="M259.62373,211.24265c-1.83459,0 -3.49816,-0.44569 -4.99071,-1.33707c-1.49255,-0.90175 -2.68969,-2.09889 -3.59144,-3.59144c-0.90175,-1.49255 -1.35263,-3.1613 -1.35263,-5.00626v-29.80434c0,-1.83459 0.45087,-3.49816 1.35263,-4.99071c0.90175,-1.50292 2.09889,-2.70006 3.59144,-3.59144c1.49255,-0.90175 3.15612,-1.35262 4.99071,-1.35262h29.74215c1.83459,0 3.49816,0.45087 4.99071,1.35262c1.50292,0.89139 2.71043,2.08853 3.62254,3.59144c0.92248,1.49255 1.38372,3.15612 1.38372,4.99071v4.27553h-10.07471v-3.79357c0,-0.13475 -0.03628,-0.23321 -0.10883,-0.2954c-0.06219,-0.07255 -0.16065,-0.10883 -0.2954,-0.10883h-28.8404c-0.13474,0 -0.23839,0.03627 -0.31095,0.10883c-0.07255,0.06219 -0.10883,0.16065 -0.10883,0.2954v28.8404c0,0.13475 0.03628,0.23839 0.10883,0.31095c0.07255,0.07255 0.1762,0.10883 0.31095,0.10883h28.8404c0.13475,0 0.23321,-0.03627 0.2954,-0.10883c0.07255,-0.07255 0.10883,-0.1762 0.10883,-0.31095v-8.14683h-10.96091v-9.99696h21.03561v18.62577c0,1.84495 -0.46124,3.51371 -1.38372,5.00626c-0.91211,1.49255 -2.11963,2.6897 -3.62254,3.59144c-1.49255,0.89139 -3.15612,1.33707 -4.99071,1.33707z" fill="url(#color-5)"/></g></g></g></svg>