<svg version="1.1" xmlns="http://www.w3.org/2000/svg" xmlns:xlink="http://www.w3.org/1999/xlink" width="305.77453" height="129.53935" viewBox="0,0,305.77453,129.53935"><defs><linearGradient x1="113.65403" y1="142.46246" x2="356.34598" y2="142.46246" gradientUnits="userSpaceOnUse" id="color-1"><stop offset="0" stop-color="#71009a"/><stop offset="1" stop-color="#630098"/></linearGradient><linearGradient x1="84.61274" y1="209.57792" x2="385.38727" y2="209.57792" gradientUnits="userSpaceOnUse" id="color-2"><stop offset="0" stop-color="#71009a"/><stop offset="1" stop-color="#630098"/></linearGradient><linearGradient x1="118.65403" y1="142.46246" x2="361.34598" y2="142.46246" gradientUnits="userSpaceOnUse" id="color-3"><stop offset="0" stop-color="#ba00ff"/><stop offset="1" stop-color="#a500ff"/></linearGradient><linearGradient x1="89.61274" y1="209.57792" x2="390.38727" y2="209.57792" gradientUnits="userSpaceOnUse" id="color-4"><stop offset="0" stop-color="#ba00ff"/><stop offset="1" stop-color="#a500ff"/></linearGradient></defs><g transform="translate(-84.61273,-104.87551)"><g data-paper-data="{&quot;isPaintingLayer&quot;:true}" fill-rule="nonzero" stroke="none" stroke-width="1" stroke-linecap="square" stroke-linejoin="miter" stroke-miterlimit="10" stroke-dasharray="" stroke-dashoffset="0" style="mix-blend-mode: normal"><path d="M113.65403,180.04941c0,0 6.63154,-5.46555 9.36852,-8.72948c1.02209,-1.21887 1.13148,-6.14596 1.13148,-6.14596v-47.29845h45.81815v10.01252h-35.74344v9.79485h28.76267v10.0747h-28.76266v17.66638c0,0 -1.06766,7.64673 -7.53511,12.07843c-4.68348,3.20926 -13.0396,2.54701 -13.0396,2.54701zM173.96703,167.54941v-49.73608h9.93478v39.73912h39.73912v9.99696zM237.43799,167.54941c-1.84495,0 -3.51371,-0.44569 -5.00626,-1.33707c-1.49255,-0.90175 -2.6897,-2.09889 -3.59144,-3.59144c-0.89139,-1.49255 -1.33707,-3.1613 -1.33707,-5.00626v-39.73912h9.93478v39.25715c0,0.13475 0.03109,0.23839 0.09328,0.31095c0.07255,0.07255 0.17621,0.10883 0.31095,0.10883h28.8404c0.13475,0 0.23321,-0.03628 0.2954,-0.10883c0.07256,-0.07255 0.10883,-0.1762 0.10883,-0.31095v-39.25715h10.07471v39.73912c0,1.84495 -0.46124,3.51371 -1.38372,5.00626c-0.91211,1.49255 -2.11962,2.6897 -3.62254,3.59144c-1.49255,0.89139 -3.13539,1.33707 -4.92852,1.33707h-29.78879zM284.06201,167.54941v0v-3.10948l18.20599,-21.7197l-18.20599,-21.73525v-3.10948h10.55668l14.2725,16.97775c0,0 4.29429,-6.50265 9.32173,-12.1634c4.11431,-4.63259 8.93981,-8.48116 10.46058,-9.58438c3.19955,-2.32107 6.66975,-3.94642 8.32191,-4.72204c6.58776,-3.09267 21.60057,-2.75793 21.60057,-2.75793c0,0 -13.34585,4.60103 -18.19212,8.3598c-1.47729,1.14579 -8.69784,7.27894 -13.44362,12.72731c-4.74577,5.44837 -11.5858,16.00762 -11.5858,16.00762l18.28373,21.65751v3.17166h-10.55667l-14.33469,-16.9l-14.14812,16.9z" fill="url(#color-1)"/><path d="M94.54752,234.41487c-1.83459,0 -3.49816,-0.44569 -4.99071,-1.33707c-1.49255,-0.90175 -2.68969,-2.09889 -3.59144,-3.59144c-0.90175,-1.49255 -1.35263,-3.1613 -1.35263,-5.00626v-29.80434c0,-1.83459 0.45087,-3.49816 1.35263,-4.99071c0.90175,-1.50292 2.09889,-2.70006 3.59144,-3.59144c1.49255,-0.90175 3.15612,-1.35262 4.99071,-1.35262h29.74215c1.83459,0 3.49816,0.45087 4.99071,1.35262c1.50292,0.89139 2.71043,2.08853 3.62254,3.59144c0.92248,1.49255 1.38372,3.15612 1.38372,4.99071v4.27553h-10.07471v-3.79357c0,-0.13475 -0.03628,-0.23321 -0.10883,-0.2954c-0.06219,-0.07255 -0.16066,-0.10883 -0.2954,-0.10883h-28.8404c-0.13474,0 -0.23839,0.03627 -0.31095,0.10883c-0.07255,0.06219 -0.10883,0.16065 -0.10883,0.2954v28.8404c0,0.13475 0.03628,0.23839 0.10883,0.31095c0.07255,0.07255 0.1762,0.10883 0.31095,0.10883h28.8404c0.13474,0 0.23321,-0.03627 0.2954,-0.10883c0.07255,-0.07255 0.10883,-0.1762 0.10883,-0.31095v-8.14683h-10.9609v-9.99696h21.03561v18.62577c0,1.84495 -0.46124,3.51371 -1.38372,5.00626c-0.91211,1.49255 -2.11963,2.6897 -3.62254,3.59144c-1.49255,0.89139 -3.15612,1.33707 -4.99071,1.33707zM142.00913,234.41487v-39.73912c0,-1.83459 0.44569,-3.49816 1.33707,-4.99071c0.90175,-1.50292 2.09889,-2.70006 3.59144,-3.59144c1.50292,-0.90175 3.17167,-1.35262 5.00626,-1.35262h29.74215c1.83459,0 3.49816,0.45087 4.99071,1.35262c1.50292,0.89139 2.71043,2.08853 3.62255,3.59144c0.92248,1.49255 1.38371,3.15612 1.38371,4.99071v39.73912h-10.0747v-16.35585h-29.66441v16.35585h-9.93478zM151.94391,208.13979h29.66441v-12.98207c0,-0.13475 -0.03627,-0.23321 -0.10883,-0.2954c-0.06219,-0.07255 -0.16066,-0.10883 -0.29541,-0.10883h-28.8404c-0.13475,0 -0.23839,0.03627 -0.31095,0.10883c-0.07255,0.06219 -0.10883,0.16065 -0.10883,0.2954v12.98207zM199.53956,234.41487v-49.67389h10.55667l17.38198,20.7713l17.31978,-20.7713h10.61887v49.67389h-9.99697v-34.84169l-12.87233,21.48078l-5.06935,-0.02539l-18.00387,-21.37765v34.76395zM262.18827,234.41487v-49.67389h9.85704v49.67389zM278.31895,234.41487v-49.67389h10.55668l29.04251,34.63958v-34.63958h10.0747v49.67389h-10.55667l-29.18244,-34.76395v34.76395zM345.64818,234.41487c-1.83459,0 -3.49816,-0.44569 -4.99071,-1.33707c-1.49255,-0.90175 -2.6897,-2.09889 -3.59145,-3.59144c-0.90175,-1.49255 -1.35262,-3.1613 -1.35262,-5.00626v-29.80434c0,-1.83459 0.45087,-3.49816 1.35262,-4.99071c0.90175,-1.50292 2.0989,-2.70006 3.59145,-3.59144c1.49255,-0.90175 3.15612,-1.35262 4.99071,-1.35262h29.74212c1.83459,0 3.49816,0.45087 4.99071,1.35262c1.50291,0.89139 2.71042,2.08853 3.62254,3.59144c0.92248,1.49255 1.38372,3.15612 1.38372,4.99071v4.27553h-10.0747v-3.79357c0,-0.13475 -0.03628,-0.23321 -0.10883,-0.2954c-0.06219,-0.07255 -0.16066,-0.10883 -0.2954,-0.10883h-28.84037c-0.13475,0 -0.23839,0.03627 -0.31095,0.10883c-0.07256,0.06219 -0.10883,0.16065 -0.10883,0.2954v28.8404c0,0.13475 0.03628,0.23839 0.10883,0.31095c0.07256,0.07255 0.1762,0.10883 0.31095,0.10883h28.84037c0.13475,0 0.23321,-0.03627 0.2954,-0.10883c0.07256,-0.07255 0.10883,-0.1762 0.10883,-0.31095v-8.14683h-10.96091v-9.99696h21.03562v18.62577c0,1.84495 -0.46124,3.51371 -1.38372,5.00626c-0.91212,1.49255 -2.11962,2.6897 -3.62254,3.59144c-1.49255,0.89139 -3.15612,1.33707 -4.99071,1.33707z" fill="url(#color-2)"/><path d="M118.65403,180.04941c0,0 6.63154,-5.46555 9.36852,-8.72948c1.0221,-1.21887 1.13147,-6.14596 1.13147,-6.14596v-47.29845h45.81815v10.01252h-35.74344v9.79485h28.76267v10.0747h-28.76266v17.66638c0,0 0.15456,5.75784 -6.31289,10.18954c-4.68347,3.20926 -14.26182,4.4359 -14.26182,4.4359zM178.96703,167.54941v-49.73608h9.93478v39.73912h39.73912v9.99696zM242.43799,167.54941c-1.84495,0 -3.51371,-0.44569 -5.00626,-1.33707c-1.49255,-0.90175 -2.6897,-2.09889 -3.59144,-3.59144c-0.89139,-1.49255 -1.33707,-3.1613 -1.33707,-5.00626v-39.73912h9.93478v39.25715c0,0.13475 0.03109,0.23839 0.09328,0.31095c0.07255,0.07255 0.17621,0.10883 0.31095,0.10883h28.8404c0.13475,0 0.23321,-0.03628 0.2954,-0.10883c0.07256,-0.07255 0.10883,-0.1762 0.10883,-0.31095v-39.25715h10.07471v39.73912c0,1.84495 -0.46124,3.51371 -1.38372,5.00626c-0.91211,1.49255 -2.11962,2.6897 -3.62254,3.59144c-1.49255,0.89139 -3.13539,1.33707 -4.92852,1.33707h-29.78879zM289.06201,167.54941v0v-3.10948l18.20599,-21.7197l-18.20599,-21.73525v-3.10948h10.55668l14.2725,16.97775c0,0 4.29429,-6.50265 9.32173,-12.1634c4.11431,-4.63259 8.93981,-8.48116 10.46058,-9.58438c3.19955,-2.32107 6.66975,-3.94642 8.32191,-4.72204c6.58776,-3.09267 19.35057,-3.50793 19.35057,-3.50793c0,0 -11.09585,5.35103 -15.94212,9.1098c-1.47729,1.14579 -8.69784,7.27894 -13.44362,12.72731c-4.74577,5.44837 -11.5858,16.00762 -11.5858,16.00762l18.28373,21.65751v3.17166h-10.55667l-14.33469,-16.9l-14.14812,16.9z" fill="url(#color-3)"/><path d="M99.54752,234.41487c-1.83459,0 -3.49816,-0.44569 -4.99071,-1.33707c-1.49255,-0.90175 -2.68969,-2.09889 -3.59144,-3.59144c-0.90175,-1.49255 -1.35263,-3.1613 -1.35263,-5.00626v-29.80434c0,-1.83459 0.45087,-3.49816 1.35263,-4.99071c0.90175,-1.50292 2.09889,-2.70006 3.59144,-3.59144c1.49255,-0.90175 3.15612,-1.35262 4.99071,-1.35262h29.74215c1.83459,0 3.49816,0.45087 4.99071,1.35262c1.50292,0.89139 2.71043,2.08853 3.62254,3.59144c0.92248,1.49255 1.38372,3.15612 1.38372,4.99071v4.27553h-10.07471v-3.79357c0,-0.13475 -0.03628,-0.23321 -0.10883,-0.2954c-0.06219,-0.07255 -0.16065,-0.10883 -0.2954,-0.10883h-28.8404c-0.13474,0 -0.23839,0.03627 -0.31095,0.10883c-0.07255,0.06219 -0.10883,0.16065 -0.10883,0.2954v28.8404c0,0.13475 0.03628,0.23839 0.10883,0.31095c0.07255,0.07255 0.1762,0.10883 0.31095,0.10883h28.8404c0.13475,0 0.23321,-0.03627 0.2954,-0.10883c0.07255,-0.07255 0.10883,-0.1762 0.10883,-0.31095v-8.14683h-10.96091v-9.99696h21.03561v18.62577c0,1.84495 -0.46124,3.51371 -1.38372,5.00626c-0.91211,1.49255 -2.11963,2.6897 -3.62254,3.59144c-1.49255,0.89139 -3.15612,1.33707 -4.99071,1.33707zM147.00913,234.41487v-39.73912c0,-1.83459 0.44569,-3.49816 1.33707,-4.99071c0.90175,-1.50292 2.09889,-2.70006 3.59144,-3.59144c1.50292,-0.90175 3.17167,-1.35262 5.00626,-1.35262h29.74215c1.83459,0 3.49816,0.45087 4.99071,1.35262c1.50292,0.89139 2.71043,2.08853 3.62255,3.59144c0.92248,1.49255 1.38371,3.15612 1.38371,4.99071v39.73912h-10.0747v-16.35585h-29.66441v16.35585h-9.93478zM156.94391,208.13979h29.66441v-12.98207c0,-0.13475 -0.03627,-0.23321 -0.10883,-0.2954c-0.06219,-0.07255 -0.16066,-0.10883 -0.29541,-0.10883h-28.8404c-0.13475,0 -0.23839,0.03627 -0.31095,0.10883c-0.07255,0.06219 -0.10883,0.16065 -0.10883,0.2954v12.98207zM204.53956,234.41487v-49.67389h10.55667l17.38198,20.7713l17.31978,-20.7713h10.61887v49.67389h-9.99697v-34.84169l-17.94168,21.45539l-18.00387,-21.37765v34.76395zM267.18827,234.41487v-49.67389h9.85704v49.67389zM283.31895,234.41487v-49.67389h10.55668l29.04251,34.63958v-34.63958h10.0747v49.67389h-10.55667l-29.18244,-34.76395v34.76395zM350.64818,234.41487c-1.83459,0 -3.49816,-0.44569 -4.99071,-1.33707c-1.49255,-0.90175 -2.6897,-2.09889 -3.59145,-3.59144c-0.90175,-1.49255 -1.35262,-3.1613 -1.35262,-5.00626v-29.80434c0,-1.83459 0.45087,-3.49816 1.35262,-4.99071c0.90175,-1.50292 2.0989,-2.70006 3.59145,-3.59144c1.49255,-0.90175 3.15612,-1.35262 4.99071,-1.35262h29.74212c1.83459,0 3.49816,0.45087 4.99071,1.35262c1.50291,0.89139 2.71042,2.08853 3.62254,3.59144c0.92248,1.49255 1.38372,3.15612 1.38372,4.99071v4.27553h-10.0747v-3.79357c0,-0.13475 -0.03628,-0.23321 -0.10883,-0.2954c-0.06219,-0.07255 -0.16066,-0.10883 -0.2954,-0.10883h-28.84037c-0.13475,0 -0.23839,0.03627 -0.31095,0.10883c-0.07256,0.06219 -0.10883,0.16065 -0.10883,0.2954v28.8404c0,0.13475 0.03628,0.23839 0.10883,0.31095c0.07256,0.07255 0.1762,0.10883 0.31095,0.10883h28.84037c0.13475,0 0.23321,-0.03627 0.2954,-0.10883c0.07256,-0.07255 0.10883,-0.1762 0.10883,-0.31095v-8.14683h-10.96091v-9.99696h21.03562v18.62577c0,1.84495 -0.46124,3.51371 -1.38372,5.00626c-0.91212,1.49255 -2.11962,2.6897 -3.62254,3.59144c-1.49255,0.89139 -3.15612,1.33707 -4.99071,1.33707z" fill="url(#color-4)"/></g></g></svg>