<svg version="1.1" xmlns="http://www.w3.org/2000/svg" xmlns:xlink="http://www.w3.org/1999/xlink" width="172.62702" height="77.87357" viewBox="0,0,172.62702,77.87357"><defs><linearGradient x1="158.37344" y1="180" x2="287.99323" y2="180" gradientUnits="userSpaceOnUse" id="color-1"><stop offset="0" stop-color="#1c0029"/><stop offset="1" stop-color="#560075"/></linearGradient><linearGradient x1="162.37345" y1="180" x2="291.99323" y2="180" gradientUnits="userSpaceOnUse" id="color-2"><stop offset="0" stop-color="#320049"/><stop offset="1" stop-color="#560075"/></linearGradient><linearGradient x1="168.84978" y1="180" x2="313.99056" y2="180" gradientUnits="userSpaceOnUse" id="color-3"><stop offset="0" stop-color="#ba00ff"/><stop offset="1" stop-color="#a500ff"/></linearGradient></defs><g transform="translate(-151.68649,-141.06322)"><g data-paper-data="{&quot;isPaintingLayer&quot;:true}" fill-rule="nonzero" stroke="none" stroke-width="1" stroke-linejoin="miter" stroke-miterlimit="10" stroke-dasharray="" stroke-dashoffset="0" style="mix-blend-mode: normal"><path d="M320.31351,206.68002c0,6.76864 -5.48955,12.25677 -12.25677,12.25677h-144.11491c-6.76864,0 -12.25535,-5.48955 -12.25535,-12.25677v-53.36146c0,-6.76864 5.48671,-12.25534 12.25535,-12.25534h144.11348c6.77149,0 12.25677,5.4867 12.25677,12.25534v53.36146z" fill="url(#color-1)" stroke-linecap="butt"/><path d="M324.31351,206.68002c0,6.76864 -5.48955,12.25677 -12.25677,12.25677h-144.11491c-6.76864,0 -12.25534,-5.48955 -12.25534,-12.25677v-53.36146c0,-6.76864 5.4867,-12.25534 12.25534,-12.25534h144.11348c6.77149,0 12.25677,5.4867 12.25677,12.25534v53.36146z" fill="url(#color-2)" stroke-linecap="butt"/><g stroke-linecap="square"><path d="M166.00943,195.97064v-31.94133h6.3908v12.73088h19.83177v-12.73088h6.37813v31.94133h-6.37812v-12.73088h-19.83177v12.73088zM210.01972,195.97064c-1.18348,0 -2.25707,-0.28742 -3.22076,-0.86225c-0.96369,-0.57483 -1.73296,-1.3441 -2.30779,-2.30779c-0.57483,-0.96369 -0.86225,-2.03728 -0.86225,-3.22076v-19.15972c0,-1.18348 0.28742,-2.25284 0.86225,-3.20808c0.57483,-0.96369 1.3441,-1.73296 2.30779,-2.30779c0.96369,-0.58329 2.03728,-0.87493 3.22076,-0.87493h19.15973c1.14967,0 2.20635,0.29165 3.17004,0.87494c0.96368,0.57483 1.73717,1.3441 2.32046,2.30779c0.59174,0.95524 0.88761,2.0246 0.88761,3.20809v19.15973c0,1.18348 -0.29587,2.25707 -0.88761,3.22076c-0.58329,0.96369 -1.35677,1.73296 -2.32046,2.30779c-0.96369,0.57483 -2.02037,0.86225 -3.17004,0.86225zM210.286,189.5418h18.5384c0.08454,0 0.14793,-0.02113 0.19021,-0.0634c0.05072,-0.05072 0.07608,-0.11835 0.07608,-0.20288v-18.5384c0,-0.09299 -0.02536,-0.16062 -0.07608,-0.20288c-0.04226,-0.04226 -0.10567,-0.0634 -0.1902,-0.0634h-18.5384c-0.09299,0 -0.16062,0.02113 -0.20288,0.0634c-0.04226,0.04226 -0.0634,0.1099 -0.0634,0.20288v18.5384c0,0.08454 0.02113,0.15216 0.0634,0.20288c0.04226,0.04226 0.1099,0.0634 0.20288,0.0634zM240.4438,195.97064v-31.94133h6.78389l11.1839,13.35222l11.13318,-13.35221h6.82193v31.94133h-6.42884v-22.39317l-8.66188,13.83184l-2.86439,-0.04849l-11.57699,-13.7453v22.35513zM281.6942,195.97064v-31.94133h29.45602v6.44152h-22.97645v6.28936h18.48768v6.47957h-18.48768v6.30204h22.97645v6.42885z" fill="#6e0099"/><path d="M168.84978,195.97066v-31.94133h6.3908v12.73088h19.83177v-12.73088h6.37813v31.94133h-6.37812v-12.73088h-19.83177v12.73088zM212.86007,195.97066c-1.18348,0 -2.25707,-0.28742 -3.22076,-0.86225c-0.96369,-0.57483 -1.73296,-1.3441 -2.30779,-2.30779c-0.57483,-0.96369 -0.86225,-2.03728 -0.86225,-3.22076v-19.15972c0,-1.18348 0.28742,-2.25284 0.86225,-3.20808c0.57483,-0.96369 1.3441,-1.73296 2.30779,-2.30779c0.96369,-0.58329 2.03728,-0.87493 3.22076,-0.87493h19.15973c1.14967,0 2.20635,0.29165 3.17004,0.87494c0.96368,0.57483 1.73717,1.3441 2.32046,2.30779c0.59174,0.95524 0.88761,2.0246 0.88761,3.20809v19.15973c0,1.18348 -0.29587,2.25707 -0.88761,3.22076c-0.58329,0.96369 -1.35677,1.73296 -2.32046,2.30779c-0.96369,0.57483 -2.02037,0.86225 -3.17004,0.86225zM213.12635,189.54181h18.5384c0.08454,0 0.14793,-0.02113 0.19021,-0.0634c0.05072,-0.05072 0.07608,-0.11835 0.07608,-0.20288v-18.5384c0,-0.09299 -0.02536,-0.16062 -0.07608,-0.20288c-0.04226,-0.04226 -0.10567,-0.0634 -0.1902,-0.0634h-18.5384c-0.09299,0 -0.16062,0.02113 -0.20288,0.0634c-0.04226,0.04226 -0.0634,0.1099 -0.0634,0.20288v18.5384c0,0.08454 0.02113,0.15216 0.0634,0.20288c0.04226,0.04226 0.1099,0.0634 0.20288,0.0634zM243.28415,195.97066v-31.94133h6.78389l11.1839,13.35222l11.13318,-13.35221h6.82193v31.94133h-6.42884v-22.39317l-11.52626,13.78334l-11.57699,-13.7453v22.35513zM284.53455,195.97066v-31.94133h29.45602v6.44152h-22.97645v6.28936h18.48768v6.47957h-18.48768v6.30204h22.97645v6.42885z" fill="url(#color-3)"/></g></g></g></svg>